<?xml version="1.0" standalone="no"?>
<!DOCTYPE svg PUBLIC "-//W3C//DTD SVG 20010904//EN"
 "http://www.w3.org/TR/2001/REC-SVG-20010904/DTD/svg10.dtd">
<svg version="1.0" xmlns="http://www.w3.org/2000/svg"
 width="433.000000pt" height="1039.000000pt" viewBox="0 0 433.000000 1039.000000"
 preserveAspectRatio="xMidYMid meet">

<g transform="translate(0.000000,1039.000000) scale(0.100000,-0.100000)"
fill="#000000" stroke="none">
<path d="M2875 10061 c-60 -54 -158 -148 -217 -209 -411 -426 -698 -972 -873
-1655 -46 -181 -47 -259 -5 -359 17 -38 30 -74 30 -79 0 -4 -44 -42 -98 -84
-55 -42 -104 -86 -110 -98 -7 -12 -153 -393 -326 -847 -208 -546 -311 -829
-305 -836 6 -7 6 -21 0 -37 -8 -20 -4 -33 25 -76 32 -48 37 -51 76 -51 l41 0
-94 -97 -94 -98 -32 -165 c-18 -91 -73 -318 -123 -505 -164 -616 -199 -805
-207 -1110 -9 -354 44 -611 185 -890 126 -251 364 -529 627 -735 60 -47 123
-98 141 -115 18 -16 209 -304 425 -640 216 -335 410 -636 431 -667 l39 -58
110 0 c85 0 110 3 106 13 -3 6 -127 308 -277 671 -227 548 -270 660 -258 667
51 29 220 170 322 268 343 335 600 709 754 1096 54 137 82 231 70 243 -5 5 -5
19 1 35 9 23 5 32 -27 73 l-37 47 -79 -2 c-62 -2 -76 0 -70 11 5 7 81 102 171
211 151 185 161 200 151 223 -8 18 -8 28 0 36 8 8 2 27 -20 72 l-30 61 -118
-4 -119 -3 43 103 c149 360 285 811 370 1224 59 290 117 732 116 894 l-1 66
-46 34 c-50 37 -41 37 -155 4 -15 -5 -16 -1 -7 28 22 77 121 548 154 734 39
222 77 490 97 695 20 207 17 762 -5 919 -62 439 -192 733 -436 984 l-104 107
-51 0 c-50 0 -53 -2 -161 -99z m433 -1320 c73 -38 112 -104 112 -191 0 -123
-115 -225 -233 -206 -46 8 -105 36 -129 63 -26 28 -58 104 -58 138 0 79 57
172 125 201 46 20 139 17 183 -5z m-697 -241 c20 -6 55 -27 78 -48 l41 -37
-30 -180 c-17 -99 -36 -185 -43 -191 -35 -33 -138 -43 -211 -22 -55 16 -138
99 -154 154 -30 101 -9 188 63 259 27 28 66 56 85 62 45 14 125 16 171 3z
m-489 -1270 c45 -13 95 -68 104 -116 9 -51 -21 -122 -65 -151 -117 -79 -273
47 -222 179 13 34 60 77 95 87 42 12 46 12 88 1z m-234 -664 l289 -328 -44
-117 c-24 -64 -48 -120 -52 -124 -7 -7 -651 652 -660 675 -2 6 21 75 50 154
l54 144 37 -38 c20 -20 167 -185 326 -366z m986 290 c151 -63 202 -260 101
-392 -79 -104 -255 -124 -350 -40 l-35 31 59 198 c33 109 63 202 66 207 9 15
121 12 159 -4z m556 -384 c0 -37 -41 -327 -47 -332 -4 -4 -30 -14 -58 -23 -27
-8 -245 -79 -483 -157 -239 -78 -435 -140 -437 -138 -6 5 90 317 101 327 5 5
189 72 409 150 220 78 423 151 450 161 57 22 65 23 65 12z m-1615 -395 c123
-68 141 -249 34 -340 -64 -55 -133 -69 -210 -42 -84 30 -138 108 -139 198 -1
165 168 264 315 184z m-350 -1109 c39 -40 85 -89 102 -108 l31 -35 -47 -112
c-25 -61 -49 -115 -53 -118 -13 -14 -83 19 -126 59 -25 22 -53 59 -63 81 -25
55 -24 147 2 205 19 41 65 100 79 100 3 0 37 -33 75 -72z m1290 -124 c52 -21
120 -87 146 -142 33 -69 32 -170 -3 -237 -138 -265 -530 -176 -530 120 0 200
203 336 387 259z m-1773 -406 c71 -85 409 -486 457 -542 13 -14 17 -51 21
-172 3 -85 3 -154 1 -154 -6 0 -711 532 -715 540 -6 10 78 398 100 459 6 19
31 -5 136 -131z m2071 -320 c-6 -7 -61 -76 -124 -153 -63 -77 -131 -161 -152
-187 l-38 -46 25 -51 c14 -28 26 -55 26 -60 0 -5 -20 -12 -45 -15 -25 -3 -66
-9 -91 -12 l-45 -5 53 -39 c91 -66 131 -145 131 -261 1 -63 -4 -86 -26 -131
-54 -111 -150 -177 -268 -186 -136 -10 -248 52 -309 172 -31 61 -35 78 -35
145 0 66 4 85 33 143 19 39 49 80 70 98 l37 31 -40 -6 c-87 -12 -348 -36 -351
-32 -2 2 -10 61 -17 131 -9 90 -10 129 -3 132 10 4 1166 342 1175 343 2 1 -1
-5 -6 -11z m-1891 -413 c104 -73 120 -231 32 -319 -127 -127 -331 -58 -360
121 -13 81 35 170 115 214 56 30 157 23 213 -16z"/>
</g>
</svg>
